<svg xmlns="http://www.w3.org/2000/svg" version="1.1" viewBox="0 0 101 101">
 <path d="m77.961 10.672 11.367 11.367 3.1992-3.1992c5.9844-5.9844-5.3828-17.355-11.367-11.367zm11.602 34.766v35.633c0 7.2422-5.9102 13.152-13.152 13.152h-57.48c-7.2422 0-13.152-5.9102-13.152-13.152v-57.48c0-7.2422 5.9102-13.152 13.152-13.152h35.633v7.3594h-35.633c-3.1797 0-5.793 2.6133-5.793 5.793v57.48c0 3.1797 2.6133 5.793 5.793 5.793h57.48c3.1797 0 5.793-2.6133 5.793-5.793v-35.633zm-3.5898-20.039-36.512 36.512-12.695 1.3281 1.3281-12.695 36.512-36.516z" fill-rule="evenodd"/>
</svg>