<svg xmlns="http://www.w3.org/2000/svg" viewBox="0 0 32 32" x="0px" y="0px"><title>newArtboard 29</title><g data-name="Layer 47"><path d="M27,2H5A3.0033,3.0033,0,0,0,2,5V27a3.0033,3.0033,0,0,0,3,3H27a3.0033,3.0033,0,0,0,3-3V5A3.0033,3.0033,0,0,0,27,2Zm1,25a1.001,1.001,0,0,1-1,1H5a1.001,1.001,0,0,1-1-1V5A1.001,1.001,0,0,1,5,4H27a1.001,1.001,0,0,1,1,1Z"/><path d="M22.707,9.293a1,1,0,0,0-1.4141,0L16,14.5859,10.707,9.293A1,1,0,0,0,9.293,10.707L14.5859,16,9.293,21.293A1,1,0,1,0,10.707,22.707L16,17.4141l5.293,5.293A1,1,0,0,0,22.707,21.293L17.4141,16l5.293-5.293A1,1,0,0,0,22.707,9.293Z"/></g></svg>